<?xml version="1.0" standalone="no"?>
<!DOCTYPE svg PUBLIC "-//W3C//DTD SVG 1.1//EN" "http://www.w3.org/Graphics/SVG/1.1/DTD/svg11.dtd">
<svg xmlns="http://www.w3.org/2000/svg" width="1000" height="546" viewBox="0 0 1000 546"><path fill="#000" stroke="#000" d="M492.5 92h17l8 2q13.6 5.4 22.5 15.5-.8 2.6 2.5 1.5 6.1-3.9 18-2 16.2 3.8 24.5 15.5l6 14v16l-7 14-19 22q-2.5 3.5-1 11l-1 1 1.5.5 82-69 7-4 2.5 2.5v13l-2 10-4 10q-7.1 11.9-17.5 20.5l-37 31-6 3q-7.4-.9-11 2L562 236.5l-1 25-1 1-1 12q-4.8 17.2-17.5 26.5-10.9 8.6-26 13l-4 1h-21q-26.4-6.1-40.5-24.5l-8-18-1-17-1-1v-16l-1-3.5-23.5-19-4-2q-12.1 1.6-20-1-8.9-2.6-13.5-9.5l-30-34-4-7 1-2.5 3.5-1 32 29q2.8 4.2 9 5 2.7-1.2.5-2.5l-34-36-1-5q.8-2.2 4.5-1.5l37 32 4.5 1v-3.5l-33-34q-2.6-1.4-2-6 .5-3 4.5-2.5l40 33 9.5 9.5 3 7 1 15 3.5 4.5 10 8 .5-19.5-24-29-4-12v-10q2.8-15.2 12.5-23.5 10-10.5 32-9l6 2q10.9-14.6 32-19Zm5.5 9-12 3-10 6q-9 6-13 18-1 4-6 3l-4-4 2-8-6-1-11 2-7 4q-8 6-11 17-2 12 3 19l22 25 3-1-10-25q-1-4 2-3l19 24 10-3v-7l-4-20q-1-7 2-6l12 29 3 2 1-1q8 1 12-1l1-3 3-30 3-2 1 4 3 31q5 2 14 1l1 1 13-29q2-3 3 0l-5 31 11 3 18-22q-1-4 3-2l-10 25v3l4 1 20-24 4-10v-8l-2-7-6-10-7-5-6-2h-13l-2 2 2 3q1 6-2 7l-5-1-8-13q-6-9-16-13l-12-3h-7Zm-1 81-1 1h-10l-16 3-21 8-2 1v10q17-7 40-10 2 1 1 6l-4 2q-21 2-35 10l-2 2v6l28-8 10-2h8l1-1h15l1 1 14 1 28 9h2v-26l-11-6-19-5-27-2Zm-4 37v2l21 13q5 2 7-1l13 1 9 4 9-1q2-1 1-4-11-8-26-11l-11-2h-9l-1-1h-13Zm-17 3-27 9v19l1 1 1 20 7 15q12 15 34 20h18l8-2 18-10q10-7 13-21l-11-8-4 2q-10 1-15-2l-9-10-2-14-25-18-7-1Zm74 23-3 3-3 12 7 3 1-5v-12l-2-1Z"/><path fill="#000" stroke="#000" d="M466.5 231q14.7-2.2 19.5 5.5l-1.5 2.5h-3l-6-3h-7l-6 3h-3l-1.5-2.5q2.8-4.2 8.5-5.5ZM469.5 242q11.1-1.6 13.5 5.5 2.3 3.2 1 10l-5.5 6.5q-3.2 2.3-10 1l-6.5-5.5q-2.3-3.2-1-10l5.5-6.5 3-1Zm-1.5 5q-3 1-2 5 1 2 5 1 2-1 1-4t-4-2ZM494.5 263h12l3.5 2.5v4l-3.5 4.5-2.5 1.5q-1 5.5 2.5 6.5l4 1q5.8-1.2 8-6h3q2.3.8 1.5 4.5-3.7 8.3-17.5 6.5l-5-3q-3.4 5.1-14 3l-6.5-4.5-2-4q.5-3 4.5-2.5 3 5 10 6l5.5-4.5q.8-3.7-1.5-4.5l-4.5-3.5-1-4 1-2.5 2.5-1ZM435.5 270l4.5 14.5 4 7-53.5 40.5-6 3h-8l-7.5-5.5q-2.7-3.3-2-10l7.5-9.5 61-40ZM566.5 270l61 40 5.5 5.5 2 8-5.5 9.5q-3.7 3.3-12 2l-9-5-50.5-38 8.5-22ZM420.5 322h10l1.5 1.5v31l1.5.5q7-8.5 25-6 11.3 2.8 17.5 10.5 8.3 9.2 7 28-2.3 11.7-9.5 18.5-9.3 10.2-31 8-12.9-2.6-19.5-11.5-5.4-6.6-7-17v-58l2.5-4.5 2-1Zm25.5 40-5 2q-7 4-9 13-2 11 3 17 3 5 11 7 11 1 16-4l5-8q-1-5 1-6 0-10-5-15-5-7-17-6ZM500.5 322l7.5 3.5q3.2 2.3 2 9l-3.5 4.5-6 2-7.5-4.5-1-8 3.5-4.5 5-2ZM544.5 349h16q12 3 18.5 11.5l6 12 1 12q-2.2 1.2-1 6l-4 9-7.5 8.5-14 6h-15q-12.8-2.7-19.5-11.5l-6-12-1-11 2-10q3.1-8.4 9.5-13.5 5.7-5.3 15-7Zm4.5 13-7 3q-6 4-8 12-1 11 3 17 4 5 12 7 9 1 14-3 6-4 7-12 1-12-4-17l-9-7h-8ZM617.5 349q26.3-3.3 34.5 11.5l4 13V413h-16v-39.5q-1.5-6.5-6.5-9.5-3.6-2.9-11-2-6.5 1.5-9.5 6.5l-3 10V413h-15v-41.5q2.2-11.8 10.5-17.5l12-5ZM349.5 350h11l.5.5v37q1.8 7.6 7.5 11.5 4.8 2.3 13 1l5.5-4.5 3-6v-35l2.5-3.5 2-1H406v38.5l-4 13-6.5 7.5q-8.8 7.2-27 5-11.8-2.2-17.5-10.5l-3-5-3-13v-31l2.5-3.5 2-1ZM497.5 350h11l.5.5V413h-15.5l-.5-.5v-58l2.5-3.5 2-1Z"/><path fill="#FFF" stroke="#FFF" d="M0 0h1000v546H0V0Zm493 92q-22 4-32 19l-6-2q-22-1-32 9-10 8-13 24v10l4 12 24 29v19l-10-8-4-4-1-15-3-7-9-10-40-33q-4-1-5 3t2 6l33 34v3l-4-1-37-32q-4-1-5 2l1 5 34 36q2 1 0 2-7-1-9-5l-32-29-4 1-1 3 4 7 30 34q5 6 14 9 7 3 20 1l4 2 23 19 1 4v16l1 1 1 17 8 18q14 18 41 24h21l4-1q15-4 26-13 12-9 17-26l1-12 1-1 1-25 17-15q3-3 11-2l6-3 37-31q10-9 17-20l4-10 2-10v-13l-2-3-7 4-82 69h-2l1-1q-1-8 1-11l19-22 7-14v-16l-6-14q-8-12-24-16-12-2-18 2-4 1-3-1-9-11-22-16l-8-2h-17Zm-57 178-61 40-8 10q-1 6 2 10l8 5h8l6-3 53-40-4-7-4-15Zm131 0-9 22 51 38 9 5q8 1 12-2l5-9-2-8-5-6-61-40Zm-146 52-2 1-3 5v58q2 10 7 17 7 8 20 11 21 2 31-8 7-7 9-18 1-19-7-28-6-8-17-11-18-2-25 6h-2v-31l-1-2h-10Zm80 0-5 2-4 5 1 8 8 4 6-2 3-4q1-7-2-9l-7-4Zm44 27q-10 2-15 7-7 5-10 14l-2 10 1 11 6 12q7 8 20 11h15l14-6 7-8 4-9q-1-5 1-6l-1-12-6-12q-7-9-18-12h-16Zm73 0-12 5q-9 6-11 18v41h15v-34l3-10q3-5 10-7 7-1 11 2t6 10v39h16v-39l-4-13q-8-15-34-12Zm-268 1-2 1-3 4v31l3 13 3 5q6 8 18 10 18 2 27-5l6-7 4-13v-39h-11l-2 1-3 4v35l-3 6-5 4q-9 1-13-1-6-4-8-11v-38h-11Zm148 0-2 1-3 4v58h16v-63h-11Z"/><path fill="#FFF" stroke="#FFF" d="M497.5 101h7l12 3q10.1 4.4 16.5 12.5l7.5 13.5 5 1q3.8-1.2 2.5-7.5l-2-3 1.5-1.5h13l6 2 7.5 5 6 9.5 2 7v8l-4 10-20.5 24.5-3.5-1v-3.5l10-24.5q-3.7-1.5-3 1.5L542.5 180l-10.5-3 5-31.5q-1.5-3-3 0L520.5 175l-1-1q-8.6.8-13.5-1l-3-31.5-1-3.5-3 1.5-3 30-1 3.5q-4.1 1.9-12.5 1l-1 1-2.5-2.5-12.5-28.5q-2.7-.6-1.5 5.5l4 20v7.5l-10.5 3-19-24q-2.6-.8-1.5 2.5l10 25.5-3.5 1-21.5-25.5q-4.8-6.2-3-19 2.7-10.8 10.5-16.5l7-4 11-2 6.5 1-2 7.5 3.5 4.5q5.8.8 6.5-3.5 3.8-11.2 12.5-17.5l10-6 12-3Z"/><path fill="#FFF" stroke="#FFF" d="m496.5 182 27 2 19 5 11.5 5.5v26l-2.5.5-28-9-14-1-1-1h-15l-1 1h-8l-10 2-27.5 8v-6.5l1.5-1.5q15-7.5 35-10l4.5-2.5q1-4.5-1.5-5.5-22.7 2.6-39.5 10v-10.5l1.5-.5 21-8 16-3h10l1-1Z"/><path fill="#FFF" stroke="#FFF" d="M493 219h12.5l1 1h9l11 2q15.2 3.3 26.5 10.5.8 3.8-1.5 4.5l-9 1-9-4-13-1q-1.5 2.5-7 1L493 221v-2ZM475.5 222l7 1 25.5 17.5 2 14 8.5 10.5q5.1 3.4 15 2l4-2 11.5 7.5q-3.1 14.4-13.5 21.5l-18 10-8 2h-18q-21.8-5.2-33.5-20.5l-7-15-1-20-1-1V231l26.5-9Zm-8.5 9q-6 1-9 6l2 2h3l6-3h7l6 3h3l1-2q-5-8-19-6Zm3 11-3 1-6 7q-1 6 1 10l7 5q6 1 10-1l5-6q1-7-1-10-2-8-13-6Zm25 21-3 1-1 3 1 4 5 3q2 1 1 5l-5 4q-7-1-10-6-5-1-5 3l2 4 7 4q10 2 14-3l5 3q13 2 17-6 1-4-1-5h-3q-3 5-8 6l-4-1q-4-1-3-6l3-2 3-4v-4l-3-3h-12ZM549.5 245l2.5.5v12l-1 5.5-7-3 3-12.5 2.5-2.5Z"/><path fill="#FFF" stroke="#FFF" d="M467.5 247q3.8-.7 4.5 1.5.8 3.8-1.5 4.5-3.7.8-4.5-1.5-.7-3.7 1.5-4.5ZM445.5 362q13-1.5 17.5 5.5 4.6 5.4 5 15-2.2 1.3-1 6l-5.5 8.5q-4.7 5.3-16 4-7.2-1.8-10.5-7.5-4.8-5.2-3-17 2.1-8.3 8.5-12.5l5-2ZM548.5 362h8l9.5 6.5q5.2 5.3 4 17-1.5 8.5-7.5 12.5-4.5 4.1-14 3-7.6-1.9-11.5-7.5-4.5-5.5-3-17 1.9-7.6 7.5-11.5l7-3Z"/></svg>